<svg viewBox="0 0 240 240" xmlns="http://www.w3.org/2000/svg">
  <defs>
    <path id="topArc" d="M 40,120 A 80,80 0 0 1 200,120" />
    <path id="bottomArc" d="M 200,124 A 80,80 0 0 1 40,124" />
    <radialGradient id="badgeGlow" cx="50%" cy="40%" r="70%">
      <stop offset="0%" stop-color="#9c4650"/>
      <stop offset="100%" stop-color="#43141c"/>
    </radialGradient>
  </defs>

  <circle cx="120" cy="120" r="118" fill="url(#badgeGlow)"/>
  <circle cx="120" cy="120" r="100" fill="none" stroke="#1a1a1a" stroke-width="3"/>
  <circle cx="120" cy="120" r="70" fill="none" stroke="#1a1a1a" stroke-width="3"/>

  <text font-family="Georgia, 'Times New Roman', serif" font-size="22" font-weight="700" letter-spacing="3" fill="#1a1a1a">
    <textPath href="#topArc" startOffset="50%" text-anchor="middle">BORCELLE</textPath>
  </text>

  <text font-family="Georgia, 'Times New Roman', serif" font-size="20" font-weight="700" letter-spacing="4" fill="#1a1a1a">
    <textPath href="#bottomArc" startOffset="50%" text-anchor="middle">COFFEE SHOP</textPath>
  </text>

  <text x="58" y="126" font-family="Work Sans, sans-serif" font-size="11" letter-spacing="1.5" fill="#1a1a1a" text-anchor="middle">ESTD</text>
  <text x="182" y="126" font-family="Work Sans, sans-serif" font-size="11" letter-spacing="1.5" fill="#1a1a1a" text-anchor="middle">2002</text>

  <!-- Cangkir kopi -->
  <g transform="translate(90,95)">
    <path d="M4 26 C4 34 10 40 20 40 C30 40 36 34 36 26 L36 12 L4 12 Z" fill="none" stroke="#1a1a1a" stroke-width="3.5" stroke-linejoin="round"/>
    <path d="M36 15 L46 15 C51 15 51 27 46 27 L38 27" fill="none" stroke="#1a1a1a" stroke-width="3.5" stroke-linecap="round"/>
    <ellipse cx="20" cy="12" rx="16" ry="3" fill="none" stroke="#1a1a1a" stroke-width="3"/>
    <ellipse cx="20" cy="44" rx="22" ry="4" fill="none" stroke="#1a1a1a" stroke-width="3"/>
    <path d="M12 -2 C10 -6 14 -8 12 -12" fill="none" stroke="#1a1a1a" stroke-width="2.2" stroke-linecap="round"/>
    <path d="M20 -2 C18 -7 22 -9 20 -14" fill="none" stroke="#1a1a1a" stroke-width="2.2" stroke-linecap="round"/>
    <path d="M28 -2 C26 -6 30 -8 28 -12" fill="none" stroke="#1a1a1a" stroke-width="2.2" stroke-linecap="round"/>
  </g>
</svg>
